<svg width="24" height="24" viewBox="0 0 24 24" fill="none" xmlns="http://www.w3.org/2000/svg">
<g id="&#230;&#137;&#147;&#229;&#188;&#128;&#229;&#175;&#185;&#232;&#175;&#157;">
<path id="Vector" d="M7.48215 11.0522C7.80202 11.0522 8.06956 10.944 8.28478 10.7277C8.49999 10.5113 8.6076 10.2432 8.6076 9.9233C8.6076 9.60344 8.49942 9.3359 8.28305 9.12068C8.06667 8.90546 7.79855 8.79785 7.4787 8.79785C7.15884 8.79785 6.89129 8.90604 6.67608 9.1224C6.46086 9.33879 6.35325 9.6069 6.35325 9.92675C6.35325 10.2466 6.46144 10.5142 6.6778 10.7294C6.89419 10.9446 7.1623 11.0522 7.48215 11.0522ZM12.0767 11.0522C12.3966 11.0522 12.6641 10.944 12.8794 10.7277C13.0946 10.5113 13.2022 10.2432 13.2022 9.9233C13.2022 9.60344 13.094 9.3359 12.8776 9.12068C12.6612 8.90546 12.3931 8.79785 12.0733 8.79785C11.7534 8.79785 11.4859 8.90604 11.2707 9.1224C11.0554 9.33879 10.9478 9.6069 10.9478 9.92675C10.9478 10.2466 11.056 10.5142 11.2724 10.7294C11.4888 10.9446 11.7569 11.0522 12.0767 11.0522ZM16.4963 11.0522C16.8162 11.0522 17.0837 10.944 17.2989 10.7277C17.5141 10.5113 17.6218 10.2432 17.6218 9.9233C17.6218 9.60344 17.5136 9.3359 17.2972 9.12068C17.0808 8.90546 16.8127 8.79785 16.4929 8.79785C16.173 8.79785 15.9054 8.90604 15.6902 9.1224C15.475 9.33879 15.3674 9.6069 15.3674 9.92675C15.3674 10.2466 15.4756 10.5142 15.692 10.7294C15.9083 10.9446 16.1765 11.0522 16.4963 11.0522ZM1.64673 22.3533V3.6272C1.64673 3.08154 1.84136 2.61269 2.23063 2.22065C2.61988 1.82864 3.0854 1.63263 3.62718 1.63263H20.3728C20.9185 1.63263 21.3873 1.82864 21.7794 2.22065C22.1714 2.61269 22.3674 3.08154 22.3674 3.6272V16.3729C22.3674 16.9146 22.1714 17.3802 21.7794 17.7694C21.3873 18.1587 20.9185 18.3533 20.3728 18.3533H5.64673L1.64673 22.3533ZM4.99673 16.3729H20.3728V3.6272H3.62718V17.8924L4.99673 16.3729Z" fill="#151515"/>
</g>
</svg>
