<svg width="14" height="14" viewBox="0 0 14 14" fill="none" xmlns="http://www.w3.org/2000/svg">
<g id="Icon">
<path id="Vector" d="M7.00001 6.99996C7.32084 6.99996 7.59559 6.88562 7.82426 6.65696C8.05293 6.42829 8.16707 6.15374 8.16668 5.83329C8.16668 5.51246 8.05234 5.23771 7.82368 5.00904C7.59501 4.78038 7.32045 4.66624 7.00001 4.66663C6.67918 4.66663 6.40443 4.78096 6.17576 5.00963C5.94709 5.23829 5.83295 5.51285 5.83334 5.83329C5.83334 6.15412 5.94768 6.42887 6.17634 6.65754C6.40501 6.88621 6.67957 7.00035 7.00001 6.99996ZM7.00001 12.6145C6.92223 12.6145 6.84445 12.6 6.76668 12.5708C6.6889 12.5416 6.62084 12.5027 6.56251 12.4541C5.14307 11.2 4.08334 10.0356 3.38334 8.96112C2.68334 7.88662 2.33334 6.8829 2.33334 5.94996C2.33334 4.49163 2.80254 3.32982 3.74093 2.46454C4.67932 1.59926 5.76568 1.16663 7.00001 1.16663C8.23473 1.16663 9.32129 1.59926 10.2597 2.46454C11.1981 3.32982 11.6671 4.49163 11.6667 5.94996C11.6667 6.88329 11.3167 7.88721 10.6167 8.96171C9.91668 10.0362 8.85695 11.2003 7.43751 12.4541C7.37918 12.5027 7.31112 12.5416 7.23334 12.5708C7.15557 12.6 7.07779 12.6145 7.00001 12.6145Z" fill="#151515"/>
</g>
</svg>
