<svg width="64" height="64" viewBox="0 0 64 64" fill="none" xmlns="http://www.w3.org/2000/svg">
<g id="&#230;&#137;&#147;&#231;&#144;&#131;&#232;&#174;&#176;&#229;&#189;&#149;">
<path id="Vector" d="M56.4221 32.5259C60.1274 28.8229 62.738 24.1942 63.6643 19.7338C64.759 14.1793 63.159 9.04566 59.1168 4.92189C54.9905 0.798125 49.8535 -0.800886 44.2955 0.377333C39.9165 1.21892 35.2006 3.91199 31.4953 7.61496C27.6215 11.4863 24.8425 16.7041 23.7478 22.0061C23.6636 22.3427 23.6636 22.5952 23.5794 22.9318V23.016C23.5794 23.1001 23.5794 23.1843 23.5794 23.1843C23.4952 23.7734 23.4109 24.5308 23.3267 25.3724C22.8215 29.8328 22.0636 36.818 18.5266 42.5407C17.6003 42.1199 16.4213 42.2041 15.6634 42.9615L0.757908 57.7734C-0.252636 58.7833 -0.252636 60.2982 0.757908 61.3081L2.69479 63.2437C3.70533 64.2536 5.22115 64.2536 6.23169 63.2437L21.053 48.3477C21.8109 47.5902 21.9793 46.412 21.4741 45.4863C27.2005 41.8675 34.1901 41.1942 38.6533 40.6893C39.4954 40.6051 40.2533 40.5209 40.8428 40.4368C40.927 40.4368 40.927 40.4368 41.0113 40.4368C41.0113 40.4368 41.0113 40.4368 41.0955 40.4368C41.4323 40.3526 41.685 40.3526 42.0218 40.2685C47.3272 39.1744 52.5483 36.3972 56.4221 32.5259ZM42.1902 37.5754L43.706 36.0605L44.5482 36.9021C43.7903 37.1546 43.0323 37.4071 42.1902 37.5754ZM29.0532 27.8972L32.2532 24.6991L35.4533 27.8972L32.2532 31.0952L29.0532 27.8972ZM31.6637 31.6843L28.8847 34.4615C27.79 33.2833 27.0321 31.9368 26.5268 30.4219L28.4637 28.4863L31.6637 31.6843ZM36.6322 20.2387L39.8323 17.0407L43.0323 20.2387L39.8323 23.4368L36.6322 20.2387ZM39.327 24.0259L36.127 27.2239L32.8427 24.0259L36.0427 20.8278L39.327 24.0259ZM50.7799 20.2387L47.5798 23.4368L44.3797 20.2387L47.5798 17.0407L50.7799 20.2387ZM48.0851 16.4516L51.2851 13.2536L54.4852 16.4516L51.3693 19.6496L48.0851 16.4516ZM43.706 19.6496L40.506 16.4516L43.706 13.2536L46.9061 16.4516L43.706 19.6496ZM43.706 20.8278L46.9061 24.0259L43.706 27.2239L40.506 24.0259L43.706 20.8278ZM47.4956 24.615L50.6956 27.813L47.4956 31.0952L44.2955 27.8972L47.4956 24.615ZM48.0851 24.0259L51.2851 20.8278L54.4852 24.0259L51.3693 27.308L48.0851 24.0259ZM51.9588 20.2387L55.1589 17.0407L58.3589 20.2387L55.1589 23.4368L51.9588 20.2387ZM51.9588 12.5803L55.1589 9.38229L58.3589 12.5803L55.1589 15.7783L51.9588 12.5803ZM51.3693 11.9912L48.1693 8.79318L51.3693 5.59516L54.5694 8.79318L51.3693 11.9912ZM50.7799 12.5803L47.5798 15.7783L44.2955 12.5803L47.4956 9.38229L50.7799 12.5803ZM43.706 11.9912L40.506 8.79318L43.706 5.59516L46.9061 8.79318L43.706 11.9912ZM43.1166 12.5803L39.9165 15.7783L36.6322 12.5803L39.8323 9.38229L43.1166 12.5803ZM39.327 16.4516L36.127 19.6496L32.8427 16.4516L36.0427 13.2536L39.327 16.4516ZM35.4533 20.2387L32.2532 23.4368L29.0532 20.2387L32.2532 17.0407L35.4533 20.2387ZM36.0427 28.4863L39.2428 31.6843L36.0427 34.8823L32.8427 31.6843L36.0427 28.4863ZM36.6322 27.8972L39.8323 24.6991L43.0323 27.8972L39.9165 31.0952L36.6322 27.8972ZM43.706 28.4863L46.9061 31.6843L43.706 34.8823L40.506 31.6843L43.706 28.4863ZM45.3903 36.6496L44.2955 35.5556L47.4956 32.3576L49.6851 34.5457C48.3377 35.3031 46.9061 36.0605 45.3903 36.6496ZM50.5272 34.0407L48.1693 31.6843L51.3693 28.4863L54.1483 31.2635C52.9694 32.2734 51.7904 33.1991 50.5272 34.0407ZM54.7378 30.6744L51.9588 27.8972L55.1589 24.6991L57.601 27.1397C56.6747 28.4863 55.6642 29.6645 54.7378 30.6744ZM58.1063 26.3823L55.7484 24.0259L58.9484 20.8278L60.2958 22.1744C59.7063 23.6892 58.9484 25.1199 58.1063 26.3823ZM60.6327 21.2486L59.5379 20.1546L61.3064 18.3873C61.1379 19.4813 60.8853 20.4071 60.6327 21.2486ZM61.4748 17.1249L58.9484 19.6496L55.7484 16.4516L58.9484 13.2536L61.4748 15.7783C61.4748 16.1991 61.4748 16.7041 61.4748 17.1249ZM61.3906 14.3476L59.5379 12.5803L60.5485 11.5704C60.9695 12.4962 61.2221 13.4219 61.3906 14.3476ZM60.2116 10.7288L58.9484 11.9912L55.7484 8.79318L57.601 6.94169C58.78 8.20407 59.6221 9.46645 60.2116 10.7288ZM57.0115 6.35259L55.1589 8.20407L51.9588 5.00605L53.222 3.74367C54.4852 4.33278 55.7484 5.17437 57.0115 6.35259ZM52.3799 3.32288L51.3693 4.41694L49.6009 2.64961C50.5272 2.73377 51.4535 2.98625 52.3799 3.32288ZM47.664 2.4813C47.8324 2.4813 48.0851 2.4813 48.2535 2.4813L50.7799 5.00605L47.5798 8.20407L44.2955 5.00605L46.7377 2.56545C47.0745 2.4813 47.4114 2.4813 47.664 2.4813ZM45.4745 2.64961L43.706 4.41694L42.6955 3.32288C43.5376 3.0704 44.464 2.81793 45.4745 2.64961ZM41.7692 3.65951L43.1166 5.00605L39.9165 8.20407L37.5586 5.84763C38.8217 5.00605 40.2533 4.24862 41.7692 3.65951ZM36.8007 6.26843L39.2428 8.70902L36.0427 11.907L33.2638 9.21397C34.2743 8.28823 35.4533 7.27833 36.8007 6.26843ZM32.7585 9.80308L35.5375 12.5803L32.3374 15.7783L29.8953 13.4219C30.7374 12.1595 31.6637 10.9813 32.7585 9.80308ZM29.4742 14.1793L31.6637 16.3674L28.4637 19.5655L27.3689 18.4714C27.8742 17.0407 28.6321 15.61 29.4742 14.1793ZM27.0321 19.3972L27.8742 20.2387L26.3584 21.7536C26.5268 20.912 26.7794 20.1546 27.0321 19.3972ZM26.0215 23.4368C26.0215 23.3526 26.0215 23.2684 26.0215 23.2684C26.0215 23.2684 26.0215 23.2684 26.0215 23.1843L28.3795 20.8278L31.5795 24.0259L28.3795 27.2239L25.8531 24.6991C25.9373 24.2783 25.9373 23.8576 26.0215 23.4368ZM27.8742 27.8972L26.2742 29.4962C26.0215 28.4021 25.8531 27.1397 25.8531 25.8774L27.8742 27.8972ZM21.2214 42.7091C23.0741 39.4269 24.0846 35.9764 24.7583 32.7784C25.432 34.209 26.2742 35.4714 27.4531 36.5655C28.5479 37.6595 29.8953 38.5853 31.2427 39.1744C28.0426 39.8477 24.5057 40.8576 21.2214 42.7091ZM29.4742 35.0506L32.2532 32.2734L35.4533 35.4714L33.5164 37.4071C32.0006 36.9021 30.6532 36.1447 29.4742 35.0506ZM34.4427 37.6595L36.0427 36.0605L38.0638 38.0803C36.8007 38.0803 35.6217 37.912 34.4427 37.6595ZM40.7586 37.8279C40.6744 37.912 40.7586 37.912 40.7586 37.8279C40.6744 37.8279 40.5902 37.8279 40.506 37.8279C40.0849 37.912 39.6639 37.912 39.2428 37.9962L36.7164 35.4714L39.9165 32.2734L43.1166 35.4714L40.7586 37.8279ZM51.8746 51.7982C49.0956 54.5754 49.0956 59.0358 51.8746 61.813C53.6431 63.5804 56.001 64.1695 58.1905 63.7487C58.0221 63.412 57.7695 63.0754 57.3484 62.6546C56.7589 62.0655 56.3378 61.813 55.8326 61.5605C55.3273 61.3081 54.7378 60.9714 53.9799 60.214C52.2115 58.4467 52.2115 55.6695 53.9799 53.9021C55.7484 52.1348 58.5274 52.1348 60.2958 53.9021C61.0537 54.6596 61.3906 55.2487 61.6432 55.7536C61.8958 56.2586 62.1485 56.6794 62.738 57.2685C63.159 57.6893 63.4959 57.9417 63.8327 58.1101C64.2538 55.9219 63.5801 53.4813 61.8958 51.7982C59.1168 49.0209 54.6536 49.0209 51.8746 51.7982ZM60.5485 56.4269C60.2958 55.9219 60.0432 55.417 59.3695 54.8279C58.1063 53.5655 56.0852 53.5655 54.9062 54.8279C53.6431 56.0902 53.6431 58.1101 54.9062 59.2883C55.4957 59.8774 56.001 60.1299 56.5063 60.4665C57.0115 60.8031 57.601 61.0556 58.2747 61.7289C58.9484 62.4021 59.2011 62.9071 59.5379 63.412C60.38 63.0754 61.2221 62.5704 61.9801 61.813C62.6537 61.1398 63.2432 60.2982 63.5801 59.3724C63.0748 59.12 62.5695 58.7833 61.8958 58.1101C61.1379 57.5209 60.8011 56.9318 60.5485 56.4269Z" fill="white"/>
</g>
</svg>
