<svg width="16" height="16" viewBox="0 0 16 16" fill="none" xmlns="http://www.w3.org/2000/svg">
<g id="QR&#231;&#160;&#129;">
<path id="Vector" d="M2.00012 7.33333V2H7.33346V7.33333H2.00012ZM3.33346 6H6.00012V3.33333H3.33346V6ZM2.00012 14V8.66667H7.33346V14H2.00012ZM3.33346 12.6667H6.00012V10H3.33346V12.6667ZM8.66679 7.33333V2H14.0001V7.33333H8.66679ZM10.0001 6H12.6668V3.33333H10.0001V6ZM12.6668 14V12.6667H14.0001V14H12.6668ZM8.66679 10V8.66667H10.0001V10H8.66679ZM10.0001 11.3333V10H11.3335V11.3333H10.0001ZM8.66679 12.6667V11.3333H10.0001V12.6667H8.66679ZM10.0001 14V12.6667H11.3335V14H10.0001ZM11.3335 12.6667V11.3333H12.6668V12.6667H11.3335ZM11.3335 10V8.66667H12.6668V10H11.3335ZM12.6668 11.3333V10H14.0001V11.3333H12.6668Z" fill="white"/>
</g>
</svg>
