<svg width="64" height="64" viewBox="0 0 64 64" fill="none" xmlns="http://www.w3.org/2000/svg">
<g id="&#231;&#172;&#148;&#232;&#174;&#176;" clip-path="url(#clip0_1300_8269)">
<path id="Vector" d="M62.6667 23.3333H58.6667V18.2667C58.6667 17.8667 58.5333 17.4667 58.1333 17.2C57.8667 16.9333 57.3333 16.8 56.9333 16.9333C53.0667 18 49.6 17.3333 46.5333 16.5333L52 10.9333C53.2 9.73333 53.8667 8.13333 53.8667 6.4C53.8667 4.66667 53.2 3.06667 52 1.86667C50.8 0.666667 49.2 0 47.4667 0C45.7333 0 44.1333 0.666667 42.9333 1.86667L29.7333 15.0667C26.5333 13.7333 23.2 14.8 19.7333 15.7333C15.8667 16.9333 12 18.1333 7.06667 16.8C6.66667 16.6667 6.26667 16.8 5.86667 17.0667C5.46667 17.3333 5.33333 17.7333 5.33333 18.2667V23.3333H1.33333C0.533333 23.3333 0 23.8667 0 24.6667V62.6667C0 63.4667 0.533333 64 1.33333 64H62.6667C63.4667 64 64 63.4667 64 62.6667V24.6667C64 23.8667 63.4667 23.3333 62.6667 23.3333ZM56 19.8667V24.6667V55.3333C51.6 56.2667 47.8667 55.0667 44.4 54C40.5333 52.8 36.9333 51.7333 33.3333 53.7333V29.7333L44.4 18.6667C47.6 19.6 51.4667 20.6667 56 19.8667ZM44.8 3.73333C46.2667 2.26667 48.6667 2.26667 50.1333 3.73333C51.6 5.46667 51.6 7.2 50.1333 9.06667L48.1333 11.0667L42.8 5.73333L44.8 3.73333ZM40.9333 7.6L46.2667 12.9333L22.1333 37.0667C20.9333 34.1333 18.6667 32.5333 16.8 31.7333L40.9333 7.6ZM19.8667 38.6667L13.3333 40.5333L15.2 34C16.5333 34.4 18.9333 35.4667 19.8667 38.6667ZM8 19.8667C12.8 20.6667 16.8 19.4667 20.4 18.4C23.2 17.6 25.4667 16.9333 27.4667 17.3333L13.3333 31.4667C13.2 31.6 13.0667 31.8667 12.9333 32L10 42.1333C9.86667 42.5333 10 43.0667 10.4 43.4667C10.6667 43.7333 10.9333 43.8667 11.3333 43.8667C11.4667 43.8667 11.6 43.8667 11.7333 43.8667L21.8667 40.9333C22 40.9333 22.1333 40.8 22.1333 40.8C22.2667 40.8 22.2667 40.6667 22.2667 40.6667L30.5333 32.4V53.7333C26.9333 51.7333 23.3333 52.9333 19.4667 54C15.8667 55.0667 12.2667 56.1333 7.86667 55.3333V19.8667H8ZM61.3333 61.3333H2.66667V26H5.33333V56.4C5.33333 57.0667 5.73333 57.6 6.26667 57.7333C8 58.1333 9.6 58.4 11.2 58.4C14.6667 58.4 17.6 57.4667 20.4 56.6667C24.8 55.3333 27.8667 54.4 31.0667 57.4667C31.7333 58 32.4 58 32.9333 57.4667C36.1333 54.4 39.2 55.3333 43.6 56.6667C46.4 57.4667 49.3333 58.4 52.8 58.4C54.4 58.4 56 58.2667 57.7333 57.7333C58.2667 57.6 58.6667 57.0667 58.6667 56.4V26H61.3333V61.3333Z" fill="white"/>
</g>
<defs>
<clipPath id="clip0_1300_8269">
<rect width="64" height="64" fill="white"/>
</clipPath>
</defs>
</svg>
