<svg width="12" height="12" viewBox="0 0 12 12" fill="none" xmlns="http://www.w3.org/2000/svg">
<g id="&#230;&#137;&#128;&#229;&#156;&#168;&#229;&#156;&#176;&#229;&#140;&#186;">
<path id="Vector" d="M6 11C5.11667 11 4.39583 10.8604 3.8375 10.5813C3.27917 10.3021 3 9.94167 3 9.5C3 9.20833 3.12083 8.95417 3.3625 8.7375C3.60417 8.52083 3.9375 8.35 4.3625 8.225L4.65 9.175C4.50833 9.21667 4.37917 9.26875 4.2625 9.33125C4.14583 9.39375 4.06667 9.45 4.025 9.5C4.13333 9.63333 4.38333 9.75 4.775 9.85C5.16667 9.95 5.575 10 6 10C6.425 10 6.83542 9.95 7.23125 9.85C7.62708 9.75 7.87917 9.63333 7.9875 9.5C7.94583 9.45 7.86667 9.39375 7.75 9.33125C7.63333 9.26875 7.50417 9.21667 7.3625 9.175L7.65 8.225C8.075 8.35 8.40625 8.52083 8.64375 8.7375C8.88125 8.95417 9 9.20833 9 9.5C9 9.94167 8.72083 10.3021 8.1625 10.5813C7.60417 10.8604 6.88333 11 6 11ZM6 9.5C5.90833 9.5 5.825 9.47292 5.75 9.41875C5.675 9.36458 5.62083 9.29167 5.5875 9.2C5.39583 8.60833 5.15417 8.1125 4.8625 7.7125C4.57083 7.3125 4.2875 6.92917 4.0125 6.5625C3.74583 6.19583 3.51458 5.81667 3.31875 5.425C3.12292 5.03333 3.025 4.55 3.025 3.975C3.025 3.14167 3.3125 2.4375 3.8875 1.8625C4.4625 1.2875 5.16667 1 6 1C6.83333 1 7.5375 1.2875 8.1125 1.8625C8.6875 2.4375 8.975 3.14167 8.975 3.975C8.975 4.55 8.87917 5.03333 8.6875 5.425C8.49583 5.81667 8.2625 6.19583 7.9875 6.5625C7.72083 6.92917 7.43958 7.3125 7.14375 7.7125C6.84792 8.1125 6.60417 8.60833 6.4125 9.2C6.37917 9.29167 6.325 9.36458 6.25 9.41875C6.175 9.47292 6.09167 9.5 6 9.5ZM6 5.0375C6.29167 5.0375 6.54167 4.93333 6.75 4.725C6.95833 4.51667 7.0625 4.26667 7.0625 3.975C7.0625 3.68333 6.95833 3.43333 6.75 3.225C6.54167 3.01667 6.29167 2.9125 6 2.9125C5.70833 2.9125 5.45833 3.01667 5.25 3.225C5.04167 3.43333 4.9375 3.68333 4.9375 3.975C4.9375 4.26667 5.04167 4.51667 5.25 4.725C5.45833 4.93333 5.70833 5.0375 6 5.0375Z" fill="white"/>
</g>
</svg>
