<svg width="22" height="22" viewBox="0 0 22 22" fill="none" xmlns="http://www.w3.org/2000/svg">
<g id="rate_review_FILL1_wght400_GRAD0_opsz24">
<path id="Vector" d="M5.49992 12.8333H7.74575L13.1541 7.47081C13.2458 7.37915 13.2916 7.26456 13.2916 7.12706C13.2916 6.98956 13.2458 6.87498 13.1541 6.78331L11.5499 5.17915C11.4583 5.08748 11.3437 5.04165 11.2062 5.04165C11.0687 5.04165 10.9541 5.08748 10.8624 5.17915L5.49992 10.5875V12.8333ZM9.62492 12.8333H16.4999V11H11.4583L9.62492 12.8333ZM1.83325 20.1666V3.66665C1.83325 3.16248 2.01277 2.73088 2.37179 2.37185C2.73082 2.01283 3.16242 1.83331 3.66659 1.83331H18.3333C18.8374 1.83331 19.269 2.01283 19.628 2.37185C19.9871 2.73088 20.1666 3.16248 20.1666 3.66665V14.6666C20.1666 15.1708 19.9871 15.6024 19.628 15.9614C19.269 16.3205 18.8374 16.5 18.3333 16.5H5.49992L1.83325 20.1666Z" fill="white"/>
</g>
</svg>
