<svg width="64" height="64" viewBox="0 0 64 64" fill="none" xmlns="http://www.w3.org/2000/svg">
<g id="&#229;&#143;&#141;&#233;&#166;&#136;&#230;&#136;&#144;&#229;&#138;&#159;">
<path id="Vector" d="M41.3333 53.1333L30 41.8L33.7333 38.0666L41.3333 45.6666L56.4 30.6L60.1333 34.3333L41.3333 53.1333ZM56 26.6666H50.6667V13.3333H45.3333V21.3333H18.6667V13.3333H13.3333V50.6666H29.3333V56H13.3333C11.8667 56 10.6111 55.4777 9.56667 54.4333C8.52222 53.3888 8 52.1333 8 50.6666V13.3333C8 11.8666 8.52222 10.6111 9.56667 9.56663C10.6111 8.52218 11.8667 7.99996 13.3333 7.99996H24.4667C24.9556 6.4444 25.9111 5.16663 27.3333 4.16663C28.7556 3.16663 30.3111 2.66663 32 2.66663C33.7778 2.66663 35.3667 3.16663 36.7667 4.16663C38.1667 5.16663 39.1111 6.4444 39.6 7.99996H50.6667C52.1333 7.99996 53.3889 8.52218 54.4333 9.56663C55.4778 10.6111 56 11.8666 56 13.3333V26.6666ZM32 13.3333C32.7556 13.3333 33.3889 13.0777 33.9 12.5666C34.4111 12.0555 34.6667 11.4222 34.6667 10.6666C34.6667 9.91107 34.4111 9.27774 33.9 8.76663C33.3889 8.25551 32.7556 7.99996 32 7.99996C31.2444 7.99996 30.6111 8.25551 30.1 8.76663C29.5889 9.27774 29.3333 9.91107 29.3333 10.6666C29.3333 11.4222 29.5889 12.0555 30.1 12.5666C30.6111 13.0777 31.2444 13.3333 32 13.3333Z" fill="#151515"/>
</g>
</svg>
