<svg width="16" height="16" viewBox="0 0 16 16" fill="none" xmlns="http://www.w3.org/2000/svg">
<g id="&#232;&#174;&#190;&#231;&#189;&#174;">
<path id="Vector" d="M6.16684 14.6667L5.90017 12.5334C5.75573 12.4778 5.61962 12.4112 5.49184 12.3334C5.36406 12.2556 5.23906 12.1723 5.11684 12.0834L3.1335 12.9167L1.30017 9.75004L3.01684 8.45004C3.00573 8.37226 3.00017 8.29726 3.00017 8.22504V7.77504C3.00017 7.70282 3.00573 7.62782 3.01684 7.55004L1.30017 6.25004L3.1335 3.08337L5.11684 3.91671C5.23906 3.82782 5.36684 3.74449 5.50017 3.66671C5.6335 3.58893 5.76684 3.52226 5.90017 3.46671L6.16684 1.33337H9.8335L10.1002 3.46671C10.2446 3.52226 10.3807 3.58893 10.5085 3.66671C10.6363 3.74449 10.7613 3.82782 10.8835 3.91671L12.8668 3.08337L14.7002 6.25004L12.9835 7.55004C12.9946 7.62782 13.0002 7.70282 13.0002 7.77504V8.22504C13.0002 8.29726 12.9891 8.37226 12.9668 8.45004L14.6835 9.75004L12.8502 12.9167L10.8835 12.0834C10.7613 12.1723 10.6335 12.2556 10.5002 12.3334C10.3668 12.4112 10.2335 12.4778 10.1002 12.5334L9.8335 14.6667H6.16684ZM8.0335 10.3334C8.67795 10.3334 9.22795 10.1056 9.6835 9.65004C10.1391 9.19449 10.3668 8.64449 10.3668 8.00004C10.3668 7.3556 10.1391 6.8056 9.6835 6.35004C9.22795 5.89449 8.67795 5.66671 8.0335 5.66671C7.37795 5.66671 6.82517 5.89449 6.37517 6.35004C5.92517 6.8056 5.70017 7.3556 5.70017 8.00004C5.70017 8.64449 5.92517 9.19449 6.37517 9.65004C6.82517 10.1056 7.37795 10.3334 8.0335 10.3334Z" fill="white"/>
</g>
</svg>
